<svg width="156" height="156" viewBox="0 0 156 156" fill="none" xmlns="http://www.w3.org/2000/svg">
<rect x="9.60556" y="9.61044" width="136.789" height="136.789" rx="68.3943" fill="#FCFCFC"/>
<rect x="9.60556" y="9.61044" width="136.789" height="136.789" rx="68.3943" stroke="#E6E5F9" stroke-width="7.19941"/>
<path d="M48.6084 55.408V53.9465L53.2784 49.5116C53.6704 49.1421 53.9616 48.8173 54.1519 48.5373C54.3423 48.2573 54.4655 47.9998 54.5215 47.7646C54.5887 47.5182 54.6223 47.2886 54.6223 47.0758C54.6223 46.5383 54.4375 46.1239 54.068 45.8327C53.6984 45.5304 53.1552 45.3792 52.4385 45.3792C51.8673 45.3792 51.3466 45.48 50.8762 45.6816C50.4171 45.8831 50.0195 46.1911 49.6835 46.6055L48.1548 45.4296C48.614 44.8136 49.23 44.3377 50.0027 44.0017C50.7866 43.6545 51.6602 43.4809 52.6233 43.4809C53.4744 43.4809 54.2135 43.6209 54.8407 43.9009C55.479 44.1697 55.9662 44.5561 56.3022 45.06C56.6493 45.564 56.8229 46.1631 56.8229 46.8575C56.8229 47.2382 56.7725 47.619 56.6717 47.9998C56.5709 48.3693 56.3806 48.7613 56.1006 49.1757C55.8206 49.59 55.4118 50.0548 54.8743 50.57L50.8594 54.3832L50.4059 53.5601H57.2765V55.408H48.6084ZM63.6269 55.5759C62.563 55.5759 61.6503 55.352 60.8887 54.904C60.1272 54.4448 59.5448 53.7841 59.1417 52.9218C58.7385 52.0594 58.5369 50.9955 58.5369 49.73C58.5369 48.3861 58.7777 47.2494 59.2593 46.3199C59.752 45.3904 60.4296 44.6848 61.2919 44.2033C62.1654 43.7217 63.1677 43.4809 64.2988 43.4809C64.8924 43.4809 65.4579 43.5425 65.9955 43.6657C66.5442 43.7889 67.009 43.9793 67.3898 44.2369L66.5834 45.8831C66.2587 45.6704 65.9059 45.5248 65.5251 45.4464C65.1556 45.3568 64.7636 45.312 64.3492 45.312C63.2405 45.312 62.3614 45.6536 61.7118 46.3367C61.0623 47.0199 60.7375 48.0278 60.7375 49.3605C60.7375 49.5732 60.7431 49.8252 60.7543 50.1164C60.7655 50.3964 60.8047 50.6819 60.8719 50.9731L60.2 50.234C60.4016 49.7748 60.6759 49.3941 61.0231 49.0917C61.3815 48.7781 61.8014 48.5429 62.283 48.3861C62.7758 48.2294 63.3077 48.151 63.8789 48.151C64.6516 48.151 65.3403 48.3021 65.9451 48.6045C66.5498 48.8957 67.0314 49.3157 67.3898 49.8644C67.7482 50.402 67.9273 51.0347 67.9273 51.7627C67.9273 52.5354 67.737 53.2073 67.3562 53.7785C66.9754 54.3496 66.4603 54.792 65.8107 55.1056C65.1612 55.4192 64.4332 55.5759 63.6269 55.5759ZM63.5093 53.8625C63.9573 53.8625 64.3548 53.7841 64.702 53.6273C65.0492 53.4593 65.318 53.2241 65.5083 52.9218C65.7099 52.6194 65.8107 52.2666 65.8107 51.8635C65.8107 51.2475 65.5979 50.7603 65.1724 50.402C64.7468 50.0436 64.1756 49.8644 63.4589 49.8644C62.9885 49.8644 62.5742 49.954 62.2158 50.1332C61.8686 50.3012 61.5887 50.5364 61.3759 50.8387C61.1743 51.1411 61.0735 51.4883 61.0735 51.8803C61.0735 52.2386 61.1687 52.569 61.3591 52.8714C61.5495 53.1737 61.8238 53.4145 62.1822 53.5937C62.5518 53.7729 62.9941 53.8625 63.5093 53.8625ZM78.1463 55.5255C77.2839 55.5255 76.5056 55.3352 75.8113 54.9544C75.1281 54.5624 74.5906 54.0249 74.1986 53.3417C73.8066 52.6586 73.6106 51.8523 73.6106 50.9227C73.6106 49.9932 73.8066 49.1869 74.1986 48.5037C74.5906 47.8206 75.1281 47.2886 75.8113 46.9079C76.5056 46.5271 77.2839 46.3367 78.1463 46.3367C78.8966 46.3367 79.5686 46.5047 80.1621 46.8407C80.7557 47.1654 81.226 47.6638 81.5732 48.3357C81.9204 49.0077 82.0939 49.87 82.0939 50.9227C82.0939 51.9642 81.926 52.8266 81.59 53.5097C81.254 54.1817 80.7893 54.6856 80.1957 55.0216C79.6022 55.3576 78.919 55.5255 78.1463 55.5255ZM78.3983 53.7281C78.9022 53.7281 79.3502 53.6161 79.7421 53.3921C80.1453 53.1681 80.4645 52.8434 80.6997 52.4178C80.946 51.9922 81.0692 51.4939 81.0692 50.9227C81.0692 50.3404 80.946 49.842 80.6997 49.4277C80.4645 49.0021 80.1453 48.6773 79.7421 48.4533C79.3502 48.2294 78.9022 48.1174 78.3983 48.1174C77.8943 48.1174 77.4407 48.2294 77.0376 48.4533C76.6456 48.6773 76.3264 49.0021 76.08 49.4277C75.8449 49.842 75.7273 50.3404 75.7273 50.9227C75.7273 51.4939 75.8449 51.9922 76.08 52.4178C76.3264 52.8434 76.6456 53.1681 77.0376 53.3921C77.4407 53.6161 77.8943 53.7281 78.3983 53.7281ZM81.1196 55.408V53.2913L81.2036 50.9059L81.0356 48.5205V42.9434H83.1187V55.408H81.1196ZM85.8824 55.408V46.4375H87.9823V55.408H85.8824ZM86.9407 44.9592C86.5488 44.9592 86.224 44.836 85.9664 44.5897C85.72 44.3433 85.5968 44.0465 85.5968 43.6993C85.5968 43.341 85.72 43.0442 85.9664 42.809C86.224 42.5626 86.5488 42.4394 86.9407 42.4394C87.3327 42.4394 87.6519 42.557 87.8983 42.7922C88.1558 43.0162 88.2846 43.3018 88.2846 43.6489C88.2846 44.0185 88.1614 44.3321 87.9151 44.5897C87.6687 44.836 87.3439 44.9592 86.9407 44.9592ZM96.265 55.408V53.5937L96.1474 53.2073V50.0324C96.1474 49.4165 95.9626 48.9405 95.5931 48.6045C95.2235 48.2573 94.6636 48.0838 93.9132 48.0838C93.4093 48.0838 92.9109 48.1622 92.4181 48.3189C91.9366 48.4757 91.5278 48.6941 91.1918 48.9741L90.3687 47.4454C90.8503 47.0758 91.4214 46.8015 92.0822 46.6223C92.7541 46.4319 93.4485 46.3367 94.1652 46.3367C95.4643 46.3367 96.4666 46.6503 97.1721 47.2774C97.8889 47.8934 98.2473 48.8509 98.2473 50.15V55.408H96.265ZM93.4429 55.5255C92.7709 55.5255 92.183 55.4136 91.679 55.1896C91.175 54.9544 90.7831 54.6352 90.5031 54.2321C90.2343 53.8177 90.0999 53.3529 90.0999 52.8378C90.0999 52.3338 90.2175 51.8803 90.4527 51.4771C90.6991 51.0739 91.0966 50.7547 91.6454 50.5196C92.1942 50.2844 92.9221 50.1668 93.8292 50.1668H96.433V51.5611H93.9804C93.2637 51.5611 92.7821 51.6787 92.5357 51.9138C92.2893 52.1378 92.1662 52.4178 92.1662 52.7538C92.1662 53.1345 92.3173 53.4369 92.6197 53.6609C92.9221 53.8849 93.3421 53.9969 93.8796 53.9969C94.3948 53.9969 94.8539 53.8793 95.2571 53.6441C95.6715 53.4089 95.9682 53.0618 96.1474 52.6026L96.5002 53.8625C96.2986 54.3888 95.9346 54.7976 95.4083 55.0888C94.8931 55.38 94.238 55.5255 93.4429 55.5255ZM103.714 55.5255C102.964 55.5255 102.241 55.4304 101.547 55.24C100.864 55.0384 100.321 54.7976 99.9174 54.5176L100.724 52.9218C101.127 53.1793 101.608 53.3921 102.168 53.5601C102.728 53.7281 103.288 53.8121 103.848 53.8121C104.509 53.8121 104.985 53.7225 105.276 53.5433C105.579 53.3641 105.73 53.1233 105.73 52.821C105.73 52.5746 105.629 52.3898 105.427 52.2666C105.226 52.1322 104.963 52.0314 104.638 51.9642C104.313 51.897 103.949 51.8355 103.546 51.7795C103.154 51.7235 102.756 51.6507 102.353 51.5611C101.961 51.4603 101.603 51.3203 101.278 51.1411C100.953 50.9507 100.69 50.6987 100.489 50.3852C100.287 50.0716 100.186 49.6572 100.186 49.1421C100.186 48.5709 100.349 48.0782 100.673 47.6638C100.998 47.2382 101.452 46.9135 102.034 46.6895C102.628 46.4543 103.328 46.3367 104.134 46.3367C104.739 46.3367 105.349 46.4039 105.965 46.5383C106.581 46.6727 107.09 46.8631 107.494 47.1094L106.687 48.7053C106.262 48.4477 105.831 48.2741 105.394 48.1846C104.968 48.0838 104.543 48.0334 104.117 48.0334C103.479 48.0334 103.003 48.1286 102.689 48.3189C102.387 48.5093 102.236 48.7501 102.236 49.0413C102.236 49.3101 102.336 49.5116 102.538 49.646C102.74 49.7804 103.003 49.8868 103.328 49.9652C103.652 50.0436 104.011 50.1108 104.403 50.1668C104.806 50.2116 105.203 50.2844 105.595 50.3852C105.987 50.486 106.346 50.626 106.67 50.8051C107.006 50.9731 107.275 51.2139 107.477 51.5275C107.678 51.8411 107.779 52.2498 107.779 52.7538C107.779 53.3137 107.611 53.8009 107.275 54.2153C106.95 54.6296 106.486 54.9544 105.881 55.1896C105.276 55.4136 104.554 55.5255 103.714 55.5255Z" fill="#1B1A1B"/>
<path d="M32.319 89.405V79.3259H36.0915C36.9458 79.3259 37.6802 79.4651 38.2945 79.7434C38.9089 80.0122 39.3792 80.4058 39.7056 80.9241C40.0416 81.4329 40.2095 82.052 40.2095 82.7816C40.2095 83.4919 40.0416 84.1063 39.7056 84.6246C39.3792 85.1334 38.9089 85.5269 38.2945 85.8053C37.6802 86.0837 36.9458 86.2229 36.0915 86.2229H32.9093L33.3845 85.7189V89.405H32.319ZM33.3845 85.8053L32.9093 85.287H36.0627C37.0706 85.287 37.8337 85.071 38.3521 84.639C38.8801 84.1975 39.144 83.5783 39.144 82.7816C39.144 81.9752 38.8801 81.3513 38.3521 80.9097C37.8337 80.4682 37.0706 80.2474 36.0627 80.2474H32.9093L33.3845 79.7434V85.8053ZM45.4662 89.477C44.6791 89.477 43.988 89.3138 43.3928 88.9875C42.7977 88.6515 42.3321 88.1955 41.9961 87.6196C41.6602 87.034 41.4922 86.3669 41.4922 85.6181C41.4922 84.8694 41.6506 84.2071 41.9673 83.6311C42.2937 83.0552 42.7353 82.604 43.292 82.2776C43.8584 81.9416 44.4919 81.7737 45.1927 81.7737C45.903 81.7737 46.5317 81.9368 47.0789 82.2632C47.6357 82.58 48.0724 83.0312 48.3892 83.6167C48.706 84.1927 48.8644 84.8598 48.8644 85.6181C48.8644 85.6661 48.8596 85.7189 48.85 85.7765C48.85 85.8245 48.85 85.8773 48.85 85.9349H42.2697V85.1718H48.3028L47.8996 85.4742C47.8996 84.927 47.7796 84.4422 47.5397 84.0199C47.3093 83.5879 46.9925 83.2519 46.5893 83.012C46.1862 82.772 45.7206 82.652 45.1927 82.652C44.6743 82.652 44.2087 82.772 43.796 83.012C43.3832 83.2519 43.0616 83.5879 42.8313 84.0199C42.6009 84.4518 42.4857 84.9462 42.4857 85.503V85.6613C42.4857 86.2373 42.6105 86.746 42.8601 87.1876C43.1192 87.6196 43.4744 87.9603 43.9256 88.2099C44.3863 88.4499 44.9095 88.5699 45.495 88.5699C45.9558 88.5699 46.383 88.4883 46.7765 88.3251C47.1797 88.1619 47.5253 87.9124 47.8132 87.5764L48.3892 88.2387C48.0532 88.6419 47.6309 88.9491 47.1221 89.1602C46.6229 89.3714 46.071 89.477 45.4662 89.477ZM50.9452 89.405V81.8457H51.9243V83.9047L51.8235 83.5447C52.0347 82.9688 52.3899 82.532 52.889 82.2344C53.3882 81.9272 54.0074 81.7737 54.7465 81.7737V82.7672C54.7081 82.7672 54.6697 82.7672 54.6313 82.7672C54.5929 82.7576 54.5545 82.7528 54.5161 82.7528C53.7194 82.7528 53.0954 82.9976 52.6443 83.4871C52.1931 83.9671 51.9675 84.6534 51.9675 85.5461V89.405H50.9452ZM56.6119 89.405V81.8457H57.6342V89.405H56.6119ZM57.1303 80.1754C56.9191 80.1754 56.7415 80.1034 56.5975 79.9594C56.4535 79.8154 56.3815 79.6426 56.3815 79.4411C56.3815 79.2395 56.4535 79.0715 56.5975 78.9371C56.7415 78.7931 56.9191 78.7211 57.1303 78.7211C57.3415 78.7211 57.5191 78.7883 57.663 78.9227C57.807 79.0571 57.879 79.2251 57.879 79.4267C57.879 79.6378 57.807 79.8154 57.663 79.9594C57.5287 80.1034 57.3511 80.1754 57.1303 80.1754ZM63.5601 89.477C62.8306 89.477 62.1731 89.3138 61.5875 88.9875C61.0116 88.6515 60.5556 88.1955 60.2196 87.6196C59.8836 87.034 59.7157 86.3669 59.7157 85.6181C59.7157 84.8598 59.8836 84.1927 60.2196 83.6167C60.5556 83.0408 61.0116 82.5896 61.5875 82.2632C62.1635 81.9368 62.821 81.7737 63.5601 81.7737C64.3089 81.7737 64.9712 81.9368 65.5472 82.2632C66.1327 82.5896 66.5887 83.0408 66.9151 83.6167C67.251 84.1927 67.419 84.8598 67.419 85.6181C67.419 86.3669 67.251 87.034 66.9151 87.6196C66.5887 88.1955 66.1327 88.6515 65.5472 88.9875C64.9616 89.3138 64.2993 89.477 63.5601 89.477ZM63.5601 88.5699C64.1073 88.5699 64.5921 88.4499 65.0144 88.2099C65.4368 87.9603 65.768 87.6148 66.0079 87.1732C66.2575 86.7221 66.3823 86.2037 66.3823 85.6181C66.3823 85.023 66.2575 84.5046 66.0079 84.0631C65.768 83.6215 65.4368 83.2807 65.0144 83.0408C64.5921 82.7912 64.1121 82.6664 63.5745 82.6664C63.037 82.6664 62.557 82.7912 62.1347 83.0408C61.7123 83.2807 61.3763 83.6215 61.1267 84.0631C60.8772 84.5046 60.7524 85.023 60.7524 85.6181C60.7524 86.2037 60.8772 86.7221 61.1267 87.1732C61.3763 87.6148 61.7123 87.9603 62.1347 88.2099C62.557 88.4499 63.0322 88.5699 63.5601 88.5699ZM72.5155 89.477C71.7956 89.477 71.1476 89.3138 70.5717 88.9875C70.0053 88.6611 69.559 88.2099 69.2326 87.634C68.9062 87.0484 68.743 86.3765 68.743 85.6181C68.743 84.8502 68.9062 84.1783 69.2326 83.6023C69.559 83.0264 70.0053 82.58 70.5717 82.2632C71.1476 81.9368 71.7956 81.7737 72.5155 81.7737C73.1779 81.7737 73.7682 81.9224 74.2866 82.22C74.8145 82.5176 75.2321 82.9544 75.5393 83.5303C75.856 84.0967 76.0144 84.7926 76.0144 85.6181C76.0144 86.4341 75.8608 87.13 75.5537 87.706C75.2465 88.2819 74.8289 88.7235 74.301 89.0307C73.7826 89.3282 73.1875 89.477 72.5155 89.477ZM72.5875 88.5699C73.1251 88.5699 73.605 88.4499 74.0274 88.2099C74.4594 87.9603 74.7953 87.6148 75.0353 87.1732C75.2849 86.7221 75.4097 86.2037 75.4097 85.6181C75.4097 85.023 75.2849 84.5046 75.0353 84.0631C74.7953 83.6215 74.4594 83.2807 74.0274 83.0408C73.605 82.7912 73.1251 82.6664 72.5875 82.6664C72.0596 82.6664 71.5844 82.7912 71.162 83.0408C70.7397 83.2807 70.4037 83.6215 70.1541 84.0631C69.9045 84.5046 69.7798 85.023 69.7798 85.6181C69.7798 86.2037 69.9045 86.7221 70.1541 87.1732C70.4037 87.6148 70.7397 87.9603 71.162 88.2099C71.5844 88.4499 72.0596 88.5699 72.5875 88.5699ZM75.4385 89.405V87.13L75.5393 85.6037L75.3953 84.0775V78.7211H76.4176V89.405H75.4385ZM82.3461 89.477C81.6165 89.477 80.959 89.3138 80.3735 88.9875C79.7975 88.6515 79.3415 88.1955 79.0056 87.6196C78.6696 87.034 78.5016 86.3669 78.5016 85.6181C78.5016 84.8598 78.6696 84.1927 79.0056 83.6167C79.3415 83.0408 79.7975 82.5896 80.3735 82.2632C80.9494 81.9368 81.6069 81.7737 82.3461 81.7737C83.0948 81.7737 83.7572 81.9368 84.3331 82.2632C84.9187 82.5896 85.3746 83.0408 85.701 83.6167C86.037 84.1927 86.205 84.8598 86.205 85.6181C86.205 86.3669 86.037 87.034 85.701 87.6196C85.3746 88.1955 84.9187 88.6515 84.3331 88.9875C83.7476 89.3138 83.0852 89.477 82.3461 89.477ZM82.3461 88.5699C82.8932 88.5699 83.378 88.4499 83.8004 88.2099C84.2227 87.9603 84.5539 87.6148 84.7939 87.1732C85.0435 86.7221 85.1683 86.2037 85.1683 85.6181C85.1683 85.023 85.0435 84.5046 84.7939 84.0631C84.5539 83.6215 84.2227 83.2807 83.8004 83.0408C83.378 82.7912 82.898 82.6664 82.3605 82.6664C81.8229 82.6664 81.343 82.7912 80.9206 83.0408C80.4982 83.2807 80.1623 83.6215 79.9127 84.0631C79.6631 84.5046 79.5383 85.023 79.5383 85.6181C79.5383 86.2037 79.6631 86.7221 79.9127 87.1732C80.1623 87.6148 80.4982 87.9603 80.9206 88.2099C81.343 88.4499 81.8181 88.5699 82.3461 88.5699ZM95.2715 89.477C94.4844 89.477 93.7932 89.3138 93.1981 88.9875C92.6029 88.6515 92.1374 88.1955 91.8014 87.6196C91.4654 87.034 91.2974 86.3669 91.2974 85.6181C91.2974 84.8694 91.4558 84.2071 91.7726 83.6311C92.099 83.0552 92.5405 82.604 93.0973 82.2776C93.6636 81.9416 94.2972 81.7737 94.9979 81.7737C95.7083 81.7737 96.337 81.9368 96.8842 82.2632C97.4409 82.58 97.8777 83.0312 98.1945 83.6167C98.5112 84.1927 98.6696 84.8598 98.6696 85.6181C98.6696 85.6661 98.6648 85.7189 98.6552 85.7765C98.6552 85.8245 98.6552 85.8773 98.6552 85.9349H92.075V85.1718H98.1081L97.7049 85.4742C97.7049 84.927 97.5849 84.4422 97.3449 84.0199C97.1145 83.5879 96.7978 83.2519 96.3946 83.012C95.9914 82.772 95.5259 82.652 94.9979 82.652C94.4796 82.652 94.014 82.772 93.6012 83.012C93.1885 83.2519 92.8669 83.5879 92.6365 84.0199C92.4061 84.4518 92.2909 84.9462 92.2909 85.503V85.6613C92.2909 86.2373 92.4157 86.746 92.6653 87.1876C92.9245 87.6196 93.2797 87.9603 93.7308 88.2099C94.1916 88.4499 94.7147 88.5699 95.3003 88.5699C95.7611 88.5699 96.1882 88.4883 96.5818 88.3251C96.985 88.1619 97.3305 87.9124 97.6185 87.5764L98.1945 88.2387C97.8585 88.6419 97.4361 88.9491 96.9274 89.1602C96.4282 89.3714 95.8762 89.477 95.2715 89.477ZM110.196 81.7737C110.81 81.7737 111.343 81.8936 111.794 82.1336C112.255 82.364 112.61 82.7192 112.86 83.1991C113.119 83.6791 113.249 84.2839 113.249 85.0134V89.405H112.226V85.1142C112.226 84.3174 112.034 83.7175 111.65 83.3143C111.276 82.9016 110.743 82.6952 110.052 82.6952C109.534 82.6952 109.083 82.8056 108.699 83.0264C108.324 83.2375 108.031 83.5495 107.82 83.9623C107.619 84.3654 107.518 84.855 107.518 85.431V89.405H106.496V85.1142C106.496 84.3174 106.304 83.7175 105.92 83.3143C105.536 82.9016 104.998 82.6952 104.307 82.6952C103.798 82.6952 103.352 82.8056 102.968 83.0264C102.584 83.2375 102.286 83.5495 102.075 83.9623C101.874 84.3654 101.773 84.855 101.773 85.431V89.405H100.75V81.8457H101.73V83.8903L101.571 83.5303C101.802 82.9832 102.171 82.556 102.68 82.2488C103.198 81.932 103.808 81.7737 104.509 81.7737C105.248 81.7737 105.876 81.9608 106.395 82.3352C106.913 82.7 107.249 83.2519 107.403 83.9911L107 83.8327C107.22 83.2183 107.609 82.724 108.166 82.3496C108.732 81.9656 109.409 81.7737 110.196 81.7737ZM118.926 89.405V88.6707L123.116 84.567C123.5 84.1927 123.788 83.8663 123.98 83.5879C124.172 83.2999 124.301 83.0312 124.368 82.7816C124.436 82.532 124.469 82.2968 124.469 82.076C124.469 81.4905 124.268 81.0297 123.864 80.6937C123.471 80.3578 122.885 80.1898 122.108 80.1898C121.513 80.1898 120.985 80.281 120.524 80.4634C120.073 80.6458 119.684 80.9289 119.358 81.3129L118.623 80.6794C119.017 80.2186 119.521 79.8634 120.135 79.6138C120.749 79.3643 121.436 79.2395 122.194 79.2395C122.876 79.2395 123.466 79.3499 123.965 79.5706C124.464 79.7818 124.848 80.0938 125.117 80.5066C125.395 80.9193 125.535 81.4041 125.535 81.9608C125.535 82.2872 125.487 82.6088 125.391 82.9256C125.304 83.2423 125.141 83.5783 124.901 83.9335C124.671 84.2791 124.33 84.6726 123.879 85.1142L120.034 88.8867L119.746 88.4835H125.995V89.405H118.926ZM68.4729 108.477C67.7529 108.477 67.105 108.314 66.529 107.987C65.9627 107.661 65.5163 107.21 65.19 106.634C64.8636 106.048 64.7004 105.376 64.7004 104.618C64.7004 103.85 64.8636 103.178 65.19 102.602C65.5163 102.026 65.9627 101.58 66.529 101.263C67.105 100.937 67.7529 100.774 68.4729 100.774C69.1352 100.774 69.7256 100.922 70.2439 101.22C70.7719 101.518 71.1895 101.954 71.4966 102.53C71.8134 103.097 71.9718 103.793 71.9718 104.618C71.9718 105.434 71.8182 106.13 71.511 106.706C71.2039 107.282 70.7863 107.723 70.2583 108.031C69.74 108.328 69.1448 108.477 68.4729 108.477ZM68.5449 107.57C69.0824 107.57 69.5624 107.45 69.9848 107.21C70.4167 106.96 70.7527 106.615 70.9927 106.173C71.2423 105.722 71.367 105.204 71.367 104.618C71.367 104.023 71.2423 103.505 70.9927 103.063C70.7527 102.622 70.4167 102.281 69.9848 102.041C69.5624 101.791 69.0824 101.666 68.5449 101.666C68.0169 101.666 67.5418 101.791 67.1194 102.041C66.697 102.281 66.3611 102.622 66.1115 103.063C65.8619 103.505 65.7371 104.023 65.7371 104.618C65.7371 105.204 65.8619 105.722 66.1115 106.173C66.3611 106.615 66.697 106.96 67.1194 107.21C67.5418 107.45 68.0169 107.57 68.5449 107.57ZM71.3958 108.405V106.13L71.4966 104.604L71.3527 103.077V97.7211H72.375V108.405H71.3958ZM75.2221 108.405V100.846H76.2444V108.405H75.2221ZM75.7405 99.1754C75.5293 99.1754 75.3517 99.1034 75.2077 98.9594C75.0637 98.8154 74.9917 98.6426 74.9917 98.4411C74.9917 98.2395 75.0637 98.0715 75.2077 97.9371C75.3517 97.7931 75.5293 97.7211 75.7405 97.7211C75.9516 97.7211 76.1292 97.7883 76.2732 97.9227C76.4172 98.0571 76.4892 98.2251 76.4892 98.4267C76.4892 98.6378 76.4172 98.8154 76.2732 98.9594C76.1388 99.1034 75.9612 99.1754 75.7405 99.1754ZM83.8262 108.405V106.735L83.783 106.461V103.668C83.783 103.025 83.6006 102.53 83.2358 102.185C82.8807 101.839 82.3479 101.666 81.6376 101.666C81.148 101.666 80.6824 101.748 80.2409 101.911C79.7993 102.074 79.4249 102.29 79.1178 102.559L78.657 101.796C79.041 101.47 79.5017 101.22 80.0393 101.047C80.5768 100.865 81.1432 100.774 81.7384 100.774C82.7175 100.774 83.471 101.018 83.999 101.508C84.5365 101.988 84.8053 102.722 84.8053 103.711V108.405H83.8262ZM81.22 108.477C80.6536 108.477 80.1593 108.386 79.7369 108.203C79.3242 108.011 79.0074 107.752 78.7866 107.426C78.5658 107.09 78.4554 106.706 78.4554 106.274C78.4554 105.88 78.5466 105.525 78.729 105.208C78.921 104.882 79.2282 104.623 79.6505 104.431C80.0825 104.229 80.6584 104.129 81.3784 104.129H83.9846V104.892H81.4072C80.6776 104.892 80.1689 105.021 79.8809 105.28C79.6025 105.54 79.4633 105.861 79.4633 106.245C79.4633 106.677 79.6313 107.023 79.9673 107.282C80.3033 107.541 80.7736 107.671 81.3784 107.671C81.9543 107.671 82.4487 107.541 82.8615 107.282C83.2838 107.013 83.591 106.629 83.783 106.13L84.0134 106.836C83.8214 107.335 83.4854 107.733 83.0054 108.031C82.5351 108.328 81.9399 108.477 81.22 108.477ZM89.6123 108.477C88.9883 108.477 88.398 108.391 87.8412 108.218C87.2844 108.035 86.8477 107.81 86.5309 107.541L86.9917 106.735C87.2988 106.965 87.6924 107.167 88.1724 107.34C88.6523 107.503 89.1563 107.584 89.6842 107.584C90.4042 107.584 90.9225 107.474 91.2393 107.253C91.5561 107.023 91.7145 106.72 91.7145 106.346C91.7145 106.068 91.6233 105.852 91.4409 105.698C91.2681 105.535 91.0377 105.415 90.7498 105.338C90.4618 105.252 90.1402 105.18 89.785 105.122C89.4299 105.065 89.0747 104.997 88.7195 104.921C88.374 104.844 88.0572 104.733 87.7692 104.589C87.4812 104.436 87.246 104.229 87.0637 103.97C86.8909 103.711 86.8045 103.365 86.8045 102.933C86.8045 102.521 86.9197 102.151 87.1501 101.825C87.3804 101.498 87.7164 101.244 88.158 101.062C88.6091 100.87 89.1563 100.774 89.7994 100.774C90.289 100.774 90.7786 100.841 91.2681 100.975C91.7577 101.1 92.1608 101.268 92.4776 101.479L92.0313 102.3C91.6953 102.07 91.3353 101.906 90.9513 101.81C90.5674 101.705 90.1834 101.652 89.7994 101.652C89.1179 101.652 88.6139 101.772 88.2876 102.012C87.9708 102.242 87.8124 102.54 87.8124 102.905C87.8124 103.193 87.8988 103.418 88.0716 103.581C88.254 103.745 88.4891 103.874 88.7771 103.97C89.0747 104.057 89.3963 104.129 89.7418 104.186C90.097 104.244 90.4474 104.316 90.793 104.402C91.1481 104.479 91.4697 104.589 91.7577 104.733C92.0553 104.868 92.2904 105.065 92.4632 105.324C92.6456 105.573 92.7368 105.904 92.7368 106.317C92.7368 106.759 92.612 107.143 92.3624 107.469C92.1224 107.786 91.7673 108.035 91.2969 108.218C90.8362 108.391 90.2746 108.477 89.6123 108.477Z" fill="#1B1A1B"/>
<path d="M92.9981 10.5694C92.9981 8.8381 91.7699 7.34384 90.0625 7.05768C77.0679 4.87988 66.4867 5.38728 54.4437 9.40436C52.5332 10.0416 51.5195 12.0982 52.0923 14.029C52.7276 16.1708 55.0467 17.3116 57.1719 16.6224C67.7345 13.1968 77.502 12.4504 88.6294 14.2075C90.8917 14.5647 92.9981 12.8597 92.9981 10.5694Z" fill="#F6ABEC"/>
<rect x="51.6016" y="9.61035" width="7.19941" height="7.19941" rx="3.5997" fill="#F067E1"/>
<rect x="25.2051" y="18.0098" width="14.3988" height="14.3988" rx="7.19941" fill="#6C64DC"/>
<rect x="28.8047" y="21.6094" width="7.19941" height="7.19941" rx="3.5997" fill="#FCFCFC"/>
<path d="M144.872 59.0911C146.135 58.207 146.688 56.6045 146.182 55.1483C143.169 46.4826 138.782 38.478 134.394 32.8361C130.039 27.2351 120.774 19.3129 111.894 14.5592C110.355 13.7352 108.467 14.2514 107.466 15.6817C106.179 17.5206 106.873 20.069 108.858 21.1172C115.988 24.8825 121.482 29.2724 126.595 35.4083C131.63 40.9474 136.234 49.4613 139.365 57.3617C140.236 59.5597 142.935 60.4469 144.872 59.0911Z" fill="#ECE9B4"/>
<rect x="128.396" y="32.4084" width="7.19941" height="7.19941" rx="3.5997" fill="#938E27"/>
<path d="M18.8904 62.1663C27.6377 29.5208 61.1931 10.1476 93.8386 18.8949C126.484 27.6422 145.857 61.1977 137.11 93.8431C128.363 126.489 94.8071 145.862 62.1617 137.114C29.5163 128.367 10.143 94.8117 18.8904 62.1663ZM134.484 93.1396C142.843 61.9442 124.33 29.8792 93.135 21.5204C61.9396 13.1616 29.8747 31.6744 21.5159 62.8698C13.1571 94.0652 31.6698 126.13 62.8652 134.489C94.0606 142.848 126.126 124.335 134.484 93.1396Z" fill="#E6E5F9"/>
<path d="M56.6756 22.0974C56.4081 21.3961 56.7594 20.6092 57.4664 20.3573C71.6115 15.3186 87.1342 15.652 101.071 21.325C115.428 27.1689 127.033 38.2435 133.541 52.3121C140.049 66.3806 140.975 82.3947 136.133 97.1199C131.291 111.845 121.041 124.184 107.454 131.645C93.8668 139.106 77.9544 141.132 62.9309 137.315C47.9073 133.498 34.8922 124.121 26.5141 111.08C18.1359 98.0382 15.0192 82.3031 17.7934 67.0524C20.4864 52.2481 28.5358 38.9712 40.3788 29.7401C40.9708 29.2786 41.8233 29.4045 42.2715 30.0066C42.7197 30.6087 42.5938 31.4589 42.0023 31.921C30.7113 40.7405 23.0374 53.4119 20.4676 67.5389C17.8167 82.1121 20.795 97.1483 28.801 109.611C36.8069 122.073 49.244 131.033 63.6002 134.68C77.9565 138.328 93.162 136.392 106.146 129.262C119.13 122.133 128.924 110.342 133.551 96.2708C138.178 82.1997 137.293 66.8969 131.074 53.4532C124.855 40.0096 113.766 29.4269 100.046 23.8425C86.7472 18.4292 71.9368 18.1038 58.4353 22.8977C57.728 23.1488 56.9431 22.7988 56.6756 22.0974Z" fill="#6C64DC"/>
</svg>
