<svg width="73" height="57" viewBox="0 0 73 57" fill="none" xmlns="http://www.w3.org/2000/svg">
<path fill-rule="evenodd" clip-rule="evenodd" d="M47.247 7.23795C47.5774 7.14948 47.8604 7.14398 48.0853 7.22532C48.2697 7.29969 48.57 7.53915 48.7468 7.7802C48.9192 8.01195 49.4268 8.76533 49.8734 9.44276C50.4058 10.2744 51.027 11.4232 51.7575 12.9579C52.6402 14.7865 52.8857 15.4066 53.0388 16.0934C53.1517 16.5655 53.2768 17.35 53.3368 17.8414C53.3969 18.3329 53.418 19.1337 53.3908 19.6245C53.3636 20.1152 53.2349 20.9928 53.118 21.582C52.9861 22.1658 52.7473 23.0729 52.5799 23.5822C52.402 24.0955 52.0292 25.008 51.7377 25.5958C51.4613 26.1889 51.0518 26.8417 50.8406 27.0503C50.6251 27.2496 50.4429 27.4148 50.4235 27.4001C50.3979 27.3985 50.5601 26.9566 50.7697 26.4317C50.9793 25.9068 51.2696 25.1338 51.4194 24.7183C51.5588 24.3066 51.7678 23.5197 51.8875 22.9622C52.0071 22.4048 52.1566 21.3885 52.2187 20.7101C52.2764 20.0225 52.301 19.1612 52.2579 18.7837C52.2148 18.4061 52.0962 17.7395 51.986 17.2992C51.8758 16.8589 51.5415 15.9217 51.2562 15.2179C50.9603 14.5179 50.3309 13.2738 49.8646 12.4507C49.3877 11.6314 48.6942 10.4873 48.3174 9.90445C47.9301 9.32546 47.5676 8.82476 47.5182 8.79919C47.4538 8.7682 46.6796 9.1506 45.7797 9.63381C44.8841 10.1263 43.4947 10.964 42.6891 11.489C41.6062 12.2141 40.9892 12.6919 40.3039 13.3913C39.7875 13.8977 39.1744 14.5924 38.9185 14.9158C38.6671 15.2484 38.2621 15.9106 38.0153 16.3835C37.7641 16.8472 37.4388 17.6768 37.2847 18.2141C37.1307 18.7513 36.986 19.5692 36.9455 20.0321C36.9156 20.491 36.9091 21.1817 36.9522 21.5593C36.9953 21.9368 37.1245 22.5996 37.2453 23.036C37.3767 23.4686 37.7399 24.3623 38.0587 25.032C38.373 25.6924 38.9057 26.6551 39.2259 27.1713C39.5461 27.6875 40.1103 28.5076 40.4833 29.0044C40.8564 29.5012 41.1879 29.9368 41.225 29.9887C41.2577 30.0314 41.1953 30.1089 41.0896 30.1477C40.9204 30.2098 40.75 30.0866 40.1837 29.4968C39.7932 29.0937 39.1322 28.3311 38.7159 27.7955C38.289 27.2638 37.6594 26.3585 37.3065 25.7997C36.8368 25.0215 36.5889 24.5006 36.2989 23.6565C36.0834 23.0472 35.8425 22.0976 35.7603 21.5596C35.6781 21.0216 35.6236 20.2549 35.6439 19.8541C35.6537 19.4572 35.7693 18.6827 35.889 18.1253C36.0086 17.5679 36.3565 16.577 36.6682 15.9273C36.9648 15.2721 37.5077 14.3518 37.8673 13.8811C38.2269 13.4105 38.8611 12.7079 39.2923 12.3094C39.7128 11.9146 40.5181 11.2586 41.0744 10.8359C41.6246 10.4265 42.6 9.76259 43.2313 9.36705C43.867 8.98081 44.9157 8.36654 45.5691 8.01751C46.2181 7.65918 46.9738 7.31632 47.247 7.23795ZM68.7948 35.0047C68.8476 34.9853 69.0249 35.0186 69.1899 35.0783C69.4748 35.1813 69.5474 35.3076 70.9951 38.3493C71.8229 40.0887 72.4996 41.5885 72.4866 41.6916C72.4841 41.7909 72.421 41.9452 72.333 42.0212C72.2327 42.1235 72.1031 42.1383 71.8931 42.0624C71.6082 41.9593 71.5312 41.8237 70.0375 38.7116C68.6563 35.8095 68.4942 35.4428 68.5908 35.2544C68.6461 35.1358 68.7419 35.0241 68.7948 35.0047ZM29.2447 49.9C29.6024 49.7905 30.1135 49.6904 30.3815 49.6795C30.6495 49.6685 30.944 49.7134 31.0473 49.7739C31.17 49.849 31.2081 49.9552 31.1828 50.0847C31.1497 50.2498 31.015 50.332 30.6723 50.4469C30.4097 50.5214 29.8089 50.72 29.3393 50.8814C28.6328 51.1188 28.4179 51.2413 28.1276 51.5445C27.9376 51.7454 27.7311 52.0943 27.669 52.3028C27.6007 52.5246 27.5565 52.9013 27.5482 53.1448C27.5453 53.4518 27.6695 53.8432 27.9767 54.4625C28.322 55.1881 28.475 55.4051 28.8291 55.6794C29.0666 55.8654 29.4153 56.0762 29.5952 56.1412C29.7691 56.2195 30.1536 56.2969 30.4349 56.3139C30.7161 56.3309 31.1877 56.278 31.4969 56.1973C31.7956 56.1205 32.2898 55.9064 32.5848 55.7435C32.8903 55.5768 33.2242 55.4433 33.3415 55.4549C33.4693 55.4626 33.6203 55.5711 33.6823 55.7014C33.7664 55.8781 33.7261 56.0021 33.4621 56.2301C33.2236 56.4597 32.8942 56.6024 32.067 56.8732C31.1974 57.1595 30.8643 57.2161 30.2956 57.1954C29.8909 57.18 29.3203 57.0507 28.9276 56.8779C28.5094 56.7036 28.1086 56.4355 27.8374 56.1526C27.5573 55.8511 27.2681 55.4 26.9715 54.7768C26.6234 54.0195 26.5329 53.7249 26.5274 53.1916C26.5099 52.8156 26.6233 52.2713 26.7742 51.91C26.919 51.5619 27.2152 51.1145 27.4307 50.9152C27.6463 50.7159 27.9949 50.4569 28.2053 50.3251C28.4202 50.2025 28.887 50.0094 29.2447 49.9ZM63.4551 39.3351C64.4031 39.0309 64.9265 38.9044 65.072 38.9494C65.2026 38.9889 65.283 39.0795 65.2744 39.1919C65.2675 39.2819 65.126 39.454 64.9534 39.561C64.7307 39.7192 64.6877 39.8115 64.7708 39.934C64.8362 40.0192 65.0052 40.2959 65.1608 40.5448C65.3758 40.892 65.4265 41.1028 65.3911 41.4982C65.3575 41.8711 65.2469 42.1084 64.9733 42.3945C64.7393 42.6333 64.4048 42.8435 64.0876 42.9599C63.8128 43.0607 63.4905 43.2446 63.3691 43.3547C63.2521 43.4741 63.1793 43.6865 63.2096 43.8284C63.247 44.0113 63.338 44.0981 63.5152 44.1314C63.6625 44.1539 64.0969 44.0491 64.562 43.8784C64.9955 43.7194 65.614 43.558 65.9454 43.5238C66.2663 43.4934 66.7248 43.5437 66.9498 43.625C67.1747 43.7064 67.4395 43.8714 67.5332 43.99C67.6375 44.1047 67.7625 44.4194 67.823 44.7031C67.8862 45.0186 67.8561 45.3466 67.7516 45.5706C67.655 45.7591 67.3613 46.1072 67.0929 46.3259C66.7303 46.6338 66.3613 46.8238 65.653 47.0837C64.8708 47.3707 64.5993 47.4266 64.1391 47.3988C63.8173 47.3749 63.4089 47.2735 63.2262 47.1766C62.9747 47.0395 62.8094 46.8488 62.6323 46.4767C62.3977 45.9838 62.4011 45.9388 62.6796 45.4542C62.9748 44.9525 62.9748 44.9525 62.6814 44.6231C62.4684 44.3844 62.3782 44.2209 62.3831 44.0224C62.3845 43.8689 62.4167 43.6495 62.4402 43.5425C62.4901 43.3603 62.438 43.303 62.093 43.1783C61.8681 43.0969 61.5777 42.9303 61.454 42.8009C61.3242 42.6847 61.1341 42.4157 61.0278 42.1925C60.926 41.9785 60.8529 41.5902 60.8629 41.3243C60.8774 41.0677 60.9631 40.7521 61.0546 40.6311C61.1566 40.5063 61.4161 40.269 61.645 40.0976C61.9496 39.8766 62.4376 39.6757 63.4551 39.3351ZM61.9703 41.8248C62.174 42.2526 62.2738 42.358 62.5888 42.4719C62.9038 42.5858 63.0589 42.5726 63.598 42.3747C64.1477 42.173 64.2674 42.0854 64.3859 41.8125C64.5193 41.545 64.4952 41.3899 64.296 40.9714C64.0968 40.5528 63.9925 40.4381 63.6775 40.3242C63.3626 40.2103 63.2074 40.2236 62.6683 40.4214C62.1292 40.6192 61.9989 40.7107 61.8805 40.9837C61.7637 41.2341 61.7817 41.4023 61.9703 41.8248ZM63.5364 45.402C63.4634 45.4834 63.4029 45.6695 63.3821 45.8083C63.3762 45.9525 63.4463 46.178 63.5533 46.3245C63.677 46.4976 63.8812 46.6048 64.1658 46.6461C64.4964 46.6886 64.7828 46.6382 65.396 46.4132C65.9562 46.2076 66.2891 46.0199 66.5442 45.7733C66.7493 45.5779 66.9127 45.3213 66.9274 45.1957C66.9316 45.0739 66.8738 44.822 66.7896 44.6453C66.6568 44.3662 66.573 44.3205 66.1983 44.316C65.9109 44.3122 65.4553 44.4247 64.8889 44.6435C64.4177 44.8273 63.9447 45.0337 63.8417 45.1042C63.7431 45.1841 63.6049 45.3113 63.5364 45.402ZM30.0683 26.0629C30.529 25.8829 31.2154 25.7075 31.5785 25.6617C31.9522 25.612 32.5905 25.5963 32.989 25.6249C33.3937 25.6403 34.1522 25.799 34.6638 25.9609C35.1799 26.1321 35.922 26.4389 36.3218 26.6527C36.711 26.8704 37.3616 27.2982 37.744 27.6059C38.1369 27.9096 38.5663 28.3421 38.6981 28.5669C38.9025 28.918 38.9052 28.9498 38.7109 28.8026C38.5944 28.7142 38.4444 28.66 38.3915 28.6794C38.3281 28.7027 38.0421 28.5454 37.7446 28.3377C37.4515 28.1393 36.8275 27.7674 36.3633 27.5225C35.899 27.2777 35.187 26.9817 34.7953 26.8632C34.3931 26.7486 33.6673 26.6325 33.1815 26.6032C32.5061 26.5669 32.0918 26.6097 31.4671 26.7843C30.8742 26.9472 30.4117 27.1497 29.8245 27.5072C29.3675 27.7733 28.6475 28.3216 28.2269 28.7163C27.7913 29.1055 26.7921 30.2152 25.9839 31.1782C25.1757 32.1413 24.5074 32.9547 24.4845 32.9849C24.4616 33.0152 24.6586 33.1942 24.9006 33.3895C25.1531 33.5809 25.952 34.0854 26.6749 34.5084C27.486 34.9865 28.4479 35.4421 29.1828 35.7078C29.8489 35.9332 30.8456 36.2012 31.3942 36.284C31.9471 36.3761 32.9197 36.489 33.5545 36.5183C34.1832 36.5608 35.2596 36.5263 35.9435 36.4502C36.6275 36.374 37.6841 36.1939 38.2965 36.0457C38.9089 35.8974 40.0243 35.5537 40.7854 35.2744C41.536 34.999 42.4608 34.5941 42.8465 34.387C43.2595 34.1589 43.6991 33.9867 43.9432 33.9518C44.1662 33.9246 44.2835 33.9362 44.1989 33.9672C44.1188 34.0075 44.0018 34.127 43.9526 34.2324C43.899 34.3285 43.5153 34.6442 43.0989 34.9172C42.6869 35.1995 42.0044 35.5919 41.5976 35.8068C41.1863 36.0123 40.316 36.3754 39.6818 36.6081C39.0369 36.8447 38.1418 37.1295 37.6863 37.242C37.2263 37.3452 36.4076 37.5036 35.8577 37.5743C35.3077 37.645 34.3108 37.7158 33.6275 37.7152C32.9487 37.7239 32.0371 37.687 31.6041 37.6383C31.1667 37.5802 30.4621 37.4564 30.0431 37.3588C29.6198 37.252 28.9008 37.0459 28.4342 36.9003C27.9781 36.7508 27.2255 36.4479 26.7489 36.2294C26.283 36.0071 25.4251 35.5352 24.8461 35.1795C24.2776 34.82 23.5854 34.331 23.3152 34.1024C23.0555 33.8699 22.7754 33.5684 22.7046 33.4195C22.6337 33.2707 22.6482 33.0141 22.7377 32.7846C22.836 32.5737 23.4804 31.7363 24.1893 30.9299C24.8938 30.1141 25.8121 29.1216 26.2389 28.7137C26.655 28.3097 27.3362 27.732 27.7349 27.4218C28.1381 27.1209 28.6381 26.7626 28.8485 26.6307C29.0545 26.4896 29.6076 26.2429 30.0683 26.0629ZM55.4677 19.1355C55.4782 19.1316 55.5518 19.3122 55.6325 19.5339C55.7336 19.8246 55.7214 20.3208 55.6006 21.1627C55.4979 21.8341 55.3252 22.7497 55.2231 23.2133C55.1164 23.6676 54.8644 24.5468 54.6629 25.167C54.457 25.778 54.0974 26.7184 53.8623 27.2418C53.6271 27.7651 53.1916 28.6242 52.8902 29.139C52.5889 29.6539 51.9904 30.5618 51.5455 31.1403C51.1051 31.728 50.4825 32.4809 50.1649 32.8051C49.8367 33.1331 49.2173 33.71 48.7834 34.0768C48.3434 34.4568 47.4569 35.0989 46.8028 35.5247C46.1442 35.9412 45.1607 36.5097 44.6102 36.7882C43.9858 37.0938 43.0477 37.4708 42.1526 37.7555C41.0522 38.1047 40.639 38.2017 40.4695 38.1328C40.3196 38.0785 40.2651 38.0075 40.306 37.9196C40.3367 37.8537 40.8466 37.5683 41.4331 37.2875C42.0197 37.0067 42.7621 36.6359 43.0844 36.4521C43.4111 36.2776 44.0574 35.8875 44.5373 35.5912C45.0065 35.2988 45.8701 34.6869 46.4343 34.2286C46.9984 33.7703 47.9883 32.8498 48.6341 32.1977C49.2754 31.5362 50.146 30.4956 50.5776 29.8893C51.0092 29.2829 51.5726 28.4316 51.8476 27.992C52.1121 27.5562 52.6373 26.5987 53.0069 25.8621C53.3765 25.1255 53.9248 23.7989 54.2342 22.9097C54.5435 22.0204 54.8922 20.9528 55.0104 20.5489C55.1241 20.1356 55.2792 19.6526 55.3396 19.4666C55.4045 19.2898 55.4677 19.1355 55.4677 19.1355ZM55.1226 38.1861C55.4486 38.0884 55.5447 38.1077 55.6455 38.2674C55.7375 38.4085 55.6729 38.7162 55.4009 39.3187C55.1499 39.9133 54.9759 40.1739 54.8208 40.1871C54.7124 40.1941 54.5685 40.1267 54.5093 40.0283C54.45 39.9298 54.4529 39.6228 54.5052 39.3414C54.5725 39.0654 54.645 38.7219 54.672 38.57C54.7147 38.3467 54.8027 38.2707 55.1226 38.1861ZM40.7708 45.2881C40.8237 45.2687 40.9815 45.2872 41.1015 45.3306C41.2965 45.4011 41.5567 45.8956 42.876 48.6675C44.3679 51.8021 44.4193 51.9362 44.3026 52.1867C44.2227 52.358 44.103 52.4456 43.9646 52.4418C43.8517 52.4395 43.6779 52.3613 43.5675 52.2597C43.4721 52.1636 42.717 50.6816 41.9024 48.9701C40.4769 45.975 40.4255 45.8409 40.5422 45.5905C40.6098 45.4455 40.7074 45.3113 40.7708 45.2881ZM32.8273 48.5307C32.9859 48.4725 33.1993 48.5035 33.3758 48.6135C33.6274 48.7506 33.6734 48.8212 33.6501 49.0592C33.6442 49.2034 33.552 49.4011 33.4623 49.4996C33.3286 49.636 33.2202 49.643 32.9202 49.5346C32.6502 49.437 32.5398 49.3355 32.5068 49.1618C32.496 49.0347 32.4992 48.8587 32.521 48.7742C32.5579 48.6951 32.6899 48.5811 32.8273 48.5307ZM66.0311 36.3466C66.084 36.3272 66.2524 36.3419 66.4147 36.3698C66.6025 36.3992 66.7685 36.5131 66.8349 36.6526C66.9013 36.7922 66.877 36.9759 66.7688 37.1139C66.6774 37.2349 66.571 37.3504 66.5181 37.3698C66.4758 37.3853 66.3091 37.3482 66.1441 37.2885C65.9792 37.2289 65.8132 37.115 65.7778 37.0405C65.7424 36.9661 65.7667 36.7824 65.8342 36.6374C65.9018 36.4924 65.9888 36.3622 66.0311 36.3466ZM55.2717 40.404C55.3202 40.3753 55.5141 40.3916 55.6853 40.438C55.8564 40.4845 56.3659 40.8766 56.8208 41.3106C57.2863 41.7408 58.5246 42.8816 59.5916 43.8449C60.6585 44.8082 61.5428 45.6747 61.5509 45.77C61.5635 45.8747 61.5126 46.0026 61.4413 46.0615C61.37 46.1205 61.1143 46.105 60.8849 46.0144C60.6494 45.9369 60.2442 45.6595 59.9712 45.3991C59.6983 45.1387 59.3609 44.8473 59.2249 44.7442C58.9768 44.5621 58.9557 44.5699 56.0582 45.5785L56.0317 45.9925C56.019 46.2266 56.0112 46.732 56.0287 47.108C56.0463 47.484 55.9898 47.8871 55.9045 47.9949C55.7964 48.1329 55.6739 48.1888 55.5205 48.1795C55.3988 48.1586 55.2523 48.0594 55.1947 47.9385C55.1416 47.8269 55.067 46.3137 55.0397 44.5865C55.0079 42.85 54.9685 41.2801 54.9567 41.0987C54.9404 40.908 54.9831 40.6847 55.0456 40.6072C55.1142 40.5165 55.2083 40.4273 55.2717 40.404ZM55.9061 43.1978C55.9364 43.8094 55.9808 44.3722 56.0162 44.4467C56.0693 44.5583 56.2729 44.5164 57.1397 44.1983L58.1968 43.8104C57.9007 43.4492 57.5607 43.126 57.2427 42.8493C56.9248 42.5727 56.5309 42.2146 56.3745 42.0426C56.2225 41.8798 56.0388 41.7287 55.9727 41.7202C55.896 41.7155 55.8485 41.7985 55.8611 41.9032C55.8631 42.0117 55.8907 42.5916 55.9061 43.1978ZM38.6615 48.4221C38.8183 48.3864 39.1109 48.3228 39.3144 48.2809C39.518 48.2389 39.7525 48.2621 39.8691 48.3505C40.0201 48.459 40.0388 48.5504 39.9528 48.735C39.8756 48.9381 39.7259 49.0149 39.0422 49.2221C38.4219 49.406 38.1604 49.5347 37.9536 49.7526C37.7926 49.91 37.6708 50.2279 37.6396 50.5016C37.5998 50.8876 37.6621 51.1489 37.941 51.7349C38.2199 52.3209 38.3879 52.5433 38.7242 52.7805C38.9768 52.9719 39.3156 53.1098 39.5563 53.1198C39.8781 53.1437 40.1979 53.0591 41.742 52.4161L41.8749 52.6951C41.9678 52.8904 41.947 53.0292 41.7965 53.1827C41.6795 53.3022 41.2832 53.5131 40.9027 53.6528C40.5221 53.7924 39.9731 53.9174 39.6735 53.9399C39.3693 53.9532 38.9469 53.9006 38.7114 53.8231C38.4864 53.7418 38.1183 53.5163 37.8825 53.3078C37.6511 53.1087 37.3162 52.718 37.1428 52.432C36.9279 52.0848 36.7869 51.7104 36.7084 51.2584C36.6442 50.8887 36.623 50.4267 36.6578 50.239C36.6777 50.046 36.8375 49.7033 37.0036 49.4784C37.1821 49.2272 37.5006 48.9573 37.8379 48.779C38.1329 48.6161 38.5046 48.4578 38.6615 48.4221ZM46.6955 45.4741C46.9731 45.405 47.449 45.3614 47.7559 45.38C48.0733 45.3946 48.5072 45.4976 48.7305 45.6014C48.9581 45.7145 49.3378 45.9904 49.5613 46.2252C49.7999 46.4655 50.1102 46.9089 50.2563 47.2158C50.4024 47.5228 50.5542 48.0243 50.5936 48.3158C50.6455 48.7119 50.5959 49.0251 50.3905 49.4283C50.243 49.7446 49.9626 50.1207 49.7671 50.2579C49.5656 50.4084 49.201 50.6077 48.9367 50.7047C48.6724 50.8017 48.223 50.901 47.9233 50.9236C47.5725 50.9431 47.1474 50.8587 46.723 50.6976C46.2942 50.5271 45.9473 50.2939 45.6866 50.0071C45.4781 49.7777 45.1783 49.3305 45.0322 49.0235C44.8861 48.7166 44.752 48.2522 44.7259 47.9887C44.7104 47.7212 44.7351 47.3297 44.7929 47.1119C44.84 46.8979 44.9963 46.6002 45.1212 46.4451C45.2505 46.2993 45.5418 46.0504 45.7751 45.8883C46.0084 45.7262 46.4179 45.5431 46.6955 45.4741ZM45.6896 47.6132C45.6946 47.8845 45.8109 48.3116 45.9703 48.6465C46.1253 48.9721 46.3818 49.3805 46.5426 49.5619C46.714 49.7394 47.0715 49.9687 47.337 50.057C47.7976 50.2158 47.906 50.2088 48.4768 49.9994C48.8257 49.8714 49.2114 49.6643 49.3345 49.5317C49.4682 49.3952 49.584 49.0905 49.5896 48.8153C49.6065 48.4594 49.5177 48.1424 49.2521 47.5843C48.9864 47.0262 48.7919 46.748 48.4961 46.5178C48.2282 46.3029 47.9574 46.1947 47.6835 46.1932C47.4684 46.1847 47.0251 46.2709 46.7185 46.3834C46.3803 46.5075 46.0835 46.6929 45.9314 46.8689C45.7959 47.0279 45.6996 47.3473 45.6896 47.6132ZM33.6685 50.298C33.753 50.267 33.9215 50.2816 34.0414 50.325C34.2214 50.3901 34.4391 50.7691 35.3068 52.5922C35.9133 53.8665 36.3403 54.868 36.33 55.0029C36.3197 55.1378 36.2071 55.2665 36.0486 55.3247C35.89 55.3829 35.7066 55.3628 35.59 55.2745C35.4779 55.1954 34.9531 54.1971 34.3493 52.9545C33.4417 51.0477 33.3212 50.7423 33.4116 50.5671C33.4669 50.4484 33.5839 50.329 33.6685 50.298ZM67.069 38.1619C67.2074 38.1658 67.3918 38.2402 67.5039 38.3192C67.616 38.3982 68.0878 39.285 68.5925 40.3454C69.0883 41.3871 69.5064 42.37 69.5288 42.5475C69.5362 42.7196 69.4952 42.9204 69.4178 42.9925C69.3448 43.074 69.1896 43.0872 68.9947 43.0167C68.7097 42.9137 68.6283 42.7687 67.6111 40.6836C66.6221 38.6319 66.5485 38.4513 66.6884 38.3016C66.7781 38.2031 66.9261 38.1488 67.069 38.1619Z" fill="#FDFFFD"/>
<rect width="64.5104" height="14.3058" transform="matrix(0.938791 -0.344487 0.429761 0.902943 11.4106 52.4214)" fill="#F4EAFD"/>
<ellipse cx="90.6764" cy="64.5809" rx="48" ry="33.5" transform="rotate(44.7333 90.6764 64.5809)" fill="#FBFBFB" fill-opacity="0.5"/>
<path d="M40.9618 43.3423C59.1661 40.0393 77.7603 58.5067 82.493 84.5905C87.2257 110.674 76.3048 134.497 58.1005 137.8C39.8962 141.103 21.302 122.636 16.5693 96.5519C11.8366 70.4681 22.7575 46.6454 40.9618 43.3423Z" fill="white" fill-opacity="0.5"/>
</svg>
