<svg xmlns="http://www.w3.org/2000/svg" width="21" height="20" viewBox="0 0 21 20" fill="none">
  <path d="M2.1665 9.99992C2.1665 6.85742 2.1665 5.28575 3.14317 4.30992C4.119 3.33325 5.69067 3.33325 8.83317 3.33325H12.1665C15.309 3.33325 16.8807 3.33325 17.8565 4.30992C18.8332 5.28575 18.8332 6.85742 18.8332 9.99992V11.6666C18.8332 14.8091 18.8332 16.3808 17.8565 17.3566C16.8807 18.3333 15.309 18.3333 12.1665 18.3333H8.83317C5.69067 18.3333 4.119 18.3333 3.14317 17.3566C2.1665 16.3808 2.1665 14.8091 2.1665 11.6666V9.99992Z" stroke="#414347" stroke-width="1.5"/>
  <path d="M6.33301 3.33325V2.08325M14.6663 3.33325V2.08325M2.58301 7.49992H18.4163" stroke="#414347" stroke-width="1.5" stroke-linecap="round"/>
</svg>