<svg
  width="22"
  height="20"
  viewBox="0 0 22 20"
  fill="none"
  xmlns="http://www.w3.org/2000/svg"
>
  <path
    id="Vector"
    fill-rule="evenodd"
    clip-rule="evenodd"
    d="M6.11628 0.5C6.31057 0.5 6.49689 0.571492 6.63428 0.698749C6.77166 0.826006 6.84884 0.998603 6.84884 1.17857V1.8689C7.49544 1.85714 8.20749 1.85714 8.99084 1.85714H13.0082C13.7925 1.85714 14.5046 1.85714 15.1512 1.8689V1.17857C15.1512 0.998603 15.2283 0.826006 15.3657 0.698749C15.5031 0.571492 15.6894 0.5 15.8837 0.5C16.078 0.5 16.2643 0.571492 16.4017 0.698749C16.5391 0.826006 16.6163 0.998603 16.6163 1.17857V1.92681C16.8702 1.9449 17.1105 1.96752 17.3381 1.99557C18.4828 2.13852 19.4098 2.4389 20.1413 3.11567C20.872 3.79333 21.1962 4.65195 21.3506 5.71233C21.5 6.74376 21.5 8.06019 21.5 9.72314V11.634C21.5 13.297 21.5 14.6143 21.3506 15.6448C21.1962 16.7052 20.872 17.5638 20.1413 18.2415C19.4098 18.9182 18.4828 19.2186 17.3381 19.3616C16.2246 19.5 14.8034 19.5 13.0082 19.5H8.99181C7.19656 19.5 5.77442 19.5 4.66191 19.3616C3.51716 19.2186 2.59023 18.9182 1.85865 18.2415C1.12805 17.5638 0.803767 16.7052 0.649442 15.6448C0.5 14.6134 0.5 13.297 0.5 11.634V9.72314C0.5 8.06019 0.5 6.74286 0.649442 5.71233C0.803767 4.65195 1.12805 3.79333 1.85865 3.11567C2.59023 2.4389 3.51716 2.13852 4.66191 1.99557C4.88949 1.96752 5.13074 1.9449 5.38372 1.92681V1.17857C5.38372 0.998603 5.4609 0.826006 5.59828 0.698749C5.73566 0.571492 5.92199 0.5 6.11628 0.5ZM4.85628 3.34095C3.87465 3.4631 3.30814 3.6929 2.89498 4.07562C2.48181 4.45833 2.23372 4.9831 2.10186 5.89329C2.0794 6.0471 2.06084 6.20995 2.04521 6.38095H19.9548C19.9392 6.20905 19.9206 6.0471 19.8981 5.89238C19.7663 4.9831 19.5182 4.45833 19.105 4.07562C18.6919 3.6929 18.1253 3.4631 17.1427 3.34095C16.1396 3.2161 14.8161 3.21429 12.9535 3.21429H9.04651C7.18386 3.21429 5.86135 3.2161 4.85628 3.34095ZM1.96512 9.77381C1.96512 9.00114 1.96512 8.3289 1.97781 7.7381H20.0222C20.0349 8.3289 20.0349 9.00114 20.0349 9.77381V11.5833C20.0349 13.3087 20.0329 14.5347 19.8981 15.4648C19.7663 16.374 19.5182 16.8988 19.105 17.2815C18.6919 17.6642 18.1253 17.894 17.1427 18.0162C16.1396 18.141 14.8161 18.1429 12.9535 18.1429H9.04651C7.18386 18.1429 5.86135 18.141 4.85628 18.0162C3.87465 17.894 3.30814 17.6642 2.89498 17.2815C2.48181 16.8988 2.23372 16.374 2.10186 15.4639C1.96707 14.5347 1.96512 13.3087 1.96512 11.5833V9.77381Z"
    fill="currentColor"
  />
</svg>
