<svg
  width="25"
  height="24"
  viewBox="0 0 25 24"
  fill="none"
  xmlns="http://www.w3.org/2000/svg"
>
  <g id="solar:home-2-outline">
    <path
      id="Vector"
      d="M11.75 18C11.75 18.1989 11.829 18.3897 11.9697 18.5303C12.1103 18.671 12.3011 18.75 12.5 18.75C12.6989 18.75 12.8897 18.671 13.0303 18.5303C13.171 18.3897 13.25 18.1989 13.25 18V15C13.25 14.8011 13.171 14.6103 13.0303 14.4697C12.8897 14.329 12.6989 14.25 12.5 14.25C12.3011 14.25 12.1103 14.329 11.9697 14.4697C11.829 14.6103 11.75 14.8011 11.75 15V18Z"
      fill="currentColor"/>
    <path
      id="Vector_2"
      fill-rule="evenodd"
      clip-rule="evenodd"
      d="M12.5 1.25C11.792 1.25 11.149 1.453 10.45 1.792C9.776 2.12 8.996 2.604 8.023 3.208L5.956 4.491C5.036 5.063 4.297 5.521 3.729 5.956C3.14 6.406 2.688 6.866 2.361 7.463C2.035 8.058 1.889 8.692 1.818 9.441C1.75 10.166 1.75 11.054 1.75 12.167V13.78C1.75 15.684 1.75 17.187 1.903 18.362C2.059 19.567 2.389 20.54 3.133 21.309C3.88 22.082 4.83 22.428 6.008 22.591C7.148 22.75 8.606 22.75 10.442 22.75H14.558C16.394 22.75 17.852 22.75 18.992 22.591C20.169 22.428 21.12 22.082 21.868 21.309C22.611 20.54 22.941 19.567 23.098 18.362C23.25 17.187 23.25 15.684 23.25 13.78V12.167C23.25 11.054 23.25 10.167 23.182 9.441C23.112 8.691 22.965 8.058 22.639 7.463C22.312 6.866 21.859 6.407 21.271 5.956C20.703 5.52 19.965 5.063 19.044 4.491L16.977 3.208C16.004 2.604 15.224 2.12 14.549 1.792C13.852 1.452 13.209 1.25 12.5 1.25ZM8.78 4.504C9.795 3.874 10.51 3.432 11.107 3.141C11.688 2.858 12.1 2.75 12.5 2.75C12.9 2.75 13.312 2.858 13.893 3.141C14.491 3.431 15.205 3.874 16.22 4.504L18.22 5.745C19.181 6.342 19.856 6.761 20.36 7.147C20.849 7.522 21.13 7.831 21.323 8.183C21.516 8.536 21.629 8.949 21.688 9.581C21.749 10.229 21.75 11.046 21.75 12.204V13.725C21.75 15.695 21.748 17.101 21.61 18.168C21.474 19.216 21.217 19.824 20.79 20.267C20.365 20.706 19.787 20.967 18.786 21.106C17.76 21.248 16.407 21.25 14.5 21.25H10.5C8.592 21.25 7.24 21.248 6.214 21.106C5.213 20.966 4.635 20.706 4.211 20.266C3.783 19.824 3.526 19.216 3.391 18.168C3.251 17.101 3.25 15.696 3.25 13.725V12.204C3.25 11.046 3.25 10.229 3.312 9.581C3.371 8.949 3.484 8.536 3.677 8.183C3.87 7.831 4.151 7.522 4.641 7.147C5.144 6.761 5.819 6.342 6.78 5.745L8.78 4.504Z"
      fill="currentColor"
    />
  </g>
</svg>
